<svg width="3840" height="2668" viewBox="0 0 3840 2668" fill="none" xmlns="http://www.w3.org/2000/svg">
<path fill-rule="evenodd" clip-rule="evenodd" d="M144.916 20.4748C101.098 64.2519 76.1041 209.137 65.1164 483.044C60.4419 599.592 53.5632 772.224 49.8202 866.668C43.0829 1036.89 42.8246 1038.62 20.4417 1065.19C-7.18139 1097.99 -6.74048 1134.01 21.3484 1138C41.8266 1140.91 43.9979 1149.15 53.5633 1260.03C61.1407 1347.86 61.623 1341.82 40.8537 1417.92C22.1139 1486.56 22.3715 1531.92 41.8848 1598.01C61.7558 1665.31 168.622 1752.02 250.36 1767.17C284.454 1773.48 284.979 1774.09 274.074 1794.5C254.544 1831.07 231.645 2021.69 231.645 2147.77C231.645 2293.54 245.952 2385.83 289.537 2521.17C347.17 2700.13 434.963 2716.88 503.517 2562C543.143 2472.48 569.327 2314.42 580.847 2095.19C585.289 2010.63 589.606 1935.84 590.429 1928.99C594.779 1892.78 588.982 1879.13 569.252 1879.13C553.573 1879.13 545.006 1887.74 529.959 1918.6C512.808 1953.8 510.122 1974.71 505.148 2111.81C497.812 2314.25 468.857 2479.07 425.946 2562.63C401.268 2610.67 381.689 2585.3 344.733 2457.36C312.228 2344.82 295.383 2206.87 301.53 2103.5C307.868 1996.87 329.428 1851.02 344.108 1815.45C354.447 1790.4 356.469 1789.47 386.879 1795.69C438.623 1806.3 548.076 1820.32 746.32 1841.74C848.689 1852.8 934.103 1863.5 936.133 1865.53C938.162 1867.55 932.531 1892.95 923.623 1921.95C893.521 2019.98 886.459 2085.08 890.826 2224.42C898.853 2480.82 946.438 2618.72 1026.9 2618.72C1072.2 2618.72 1110.41 2574.51 1153.44 2472.33C1221.5 2310.72 1234.37 2214.36 1217.99 1989.23C1213.02 1920.91 1213.36 1887.44 1219.04 1887.44C1223.69 1887.44 1246.83 1891.1 1270.45 1895.57C1398.44 1919.82 1785.1 1970.54 1842.01 1970.54C1923.43 1970.54 2021.23 1959.18 2138.3 1936.13L2227.54 1918.55L2278.27 1965.48C2306.18 1991.3 2343.69 2019.89 2361.63 2029.04C2386.5 2041.71 2394.25 2050.62 2394.25 2066.53C2394.25 2096.4 2410.25 2098.99 2494.15 2082.71C2535.1 2074.76 2578.96 2070.75 2591.64 2073.78C2688.03 2096.92 2726.15 2095.92 2732.91 2070.11C2738.4 2049.12 2796.93 2045.33 3115.87 2045.33H3394.21L3442.52 2019.6C3521.13 1977.74 3527.56 1930.73 3459.41 1896C3398.28 1864.84 3180.72 1816.7 2969.6 1787.63C2902.48 1778.38 2818.36 1764.92 2782.66 1757.7C2705.96 1742.19 2677.05 1746.55 2677.05 1773.61C2677.05 1809.25 2729.12 1826.97 2901.63 1850.09C3113.82 1878.54 3384.17 1934.08 3403.27 1953.17C3422.9 1972.78 3336.43 1977.9 2951.54 1979.92L2548.13 1982.03L2508.86 1959.09C2460.77 1930.99 2422.31 1931.48 2425.34 1960.15C2427.94 1984.61 2421.18 1983.78 2376.33 1954.09C2326.3 1920.98 2304.85 1897.36 2320.34 1892.41C2326.68 1890.4 2363.68 1878.62 2402.57 1866.24C2535.2 1824.02 2736.97 1711.3 2857.86 1611.88L2918.07 1562.37L2970.15 1599.41C3045.19 1652.8 3202.63 1716.33 3311.7 1737.25C3429.88 1759.91 3742.73 1762.83 3773.14 1741.54C3821.43 1707.75 3772.99 1636.6 3648.05 1557.78C3571.11 1509.25 3494.68 1472.19 3355.24 1415.81L3280.67 1385.66L3359.4 1358.54C3402.7 1343.62 3476.76 1318.15 3523.99 1301.94C3658.36 1255.81 3704.17 1217.04 3767.09 1096.22C3821.54 991.642 3834.45 927.904 3839.05 740.654C3843.46 561.573 3832.99 462.119 3796.8 339.388C3785.73 301.852 3773.48 256.272 3769.59 238.106C3761.74 201.459 3734.1 181.091 3706.21 191.395C3678.89 201.492 3614.97 286.254 3555.3 391.55C3501.8 485.961 3499.09 493.323 3501.8 536.893C3503.38 562.13 3502.38 582.78 3499.57 582.772C3496.78 582.772 3470.58 571.936 3441.35 558.715C3375.72 529.006 3267 507.974 3179.03 507.974H3112.54L3076.99 393.711C3030.93 245.668 3012.95 204.658 2983.06 179.537C2951.32 152.854 2941.62 153.56 2905.52 185.238C2868.23 217.946 2831.86 288.764 2818.73 354.238C2813.23 381.661 2803.59 422.796 2797.31 445.649C2784.21 493.307 2778.38 789.625 2789 867.94L2795.56 916.271L2747.17 885.349C2626.44 808.19 2483.63 758.13 2289.66 724.973C1870.41 653.316 1732.21 633.463 1612.39 627.713C1476.23 621.181 1204.99 635.458 1031.42 658.285C961.211 667.526 898.345 673.941 891.708 672.554C885.079 671.158 909.716 653.507 946.455 633.33C1016.29 594.971 1071.74 550.455 1071.74 532.729C1071.74 498.193 827.468 600.705 654.285 707.921C615.175 732.136 554.239 759.285 497.429 777.808C446.325 794.47 372.589 822.84 333.554 840.857C294.527 858.873 262.038 873.615 261.364 873.615C260.699 873.615 261.589 825.932 263.344 767.662C265.207 706.043 260.99 606.331 253.255 529.355C245.944 456.551 239.938 348.106 239.896 288.365C239.755 42.4464 209.195 -43.745 144.916 20.4748ZM2958.69 264.906C2962.95 272.9 2982.36 331.436 3001.84 394.974C3034.18 500.478 3036.06 511.373 3023.5 520.538C2997.19 539.76 3011.84 582.764 3044.7 582.764C3052.93 582.764 3059.67 586.237 3059.67 590.484C3059.67 603.929 3085.19 624.314 3102.03 624.314C3111.25 624.314 3122.33 615.364 3127.72 603.539C3136.44 584.426 3141.59 582.772 3192.01 582.83C3276.6 582.922 3348.94 597.672 3418.38 628.968C3453.26 644.69 3489.49 657.554 3498.88 657.554C3521.59 657.554 3542.09 636.006 3542.09 612.148C3542.09 601.536 3547.03 590.958 3553.06 588.647C3559.09 586.337 3568.77 562.562 3574.57 535.821C3584.95 487.938 3649.33 359.856 3686.32 313.511L3705.24 289.803L3727.17 363.571C3758.49 468.9 3769.2 559.629 3768.26 711.569C3767.2 884.111 3752.96 964.693 3707.62 1054.87C3683.1 1103.64 3670.29 1121.35 3664.05 1115.12C3651.68 1102.76 3624.17 1104.13 3588.86 1118.87C3535.57 1141.11 3558.69 1185.02 3612.85 1164.44C3625.53 1159.63 3637.59 1157.39 3639.66 1159.45C3648.04 1167.82 3575.07 1206.8 3504.67 1231.56C3244.77 1322.98 3218.85 1330.78 3157.67 1335.95L3094.05 1341.32L3098.77 1278.93C3102.99 1223.19 3101.11 1211.33 3081.16 1167.65C3055.53 1111.54 3010.88 1062.35 2938.08 1010.02C2882.2 969.853 2875.14 955.095 2860.92 848.685C2850.54 770.928 2858.79 487.323 2872.77 441.494C2879.05 420.926 2886.77 389.14 2889.93 370.858C2897.24 328.552 2931.33 250.363 2942.47 250.363C2947.14 250.363 2954.43 256.912 2958.69 264.906ZM156.378 699.104C160.911 751.665 166.859 826.497 169.604 865.388L174.586 936.115L147.92 955.81L121.261 975.504L127.059 777.052C132.465 592.32 141.041 501.176 146.123 574.454C147.229 590.451 151.845 646.543 156.378 699.104ZM1795.38 716.264C1820.54 720.935 1897.27 733.665 1965.89 744.552C2483.68 826.721 2543.6 843.766 2736.8 963.771C2819.64 1015.22 2827.08 1022.07 2846.57 1064.7C2891.78 1163.63 2925.68 1244.46 2930.98 1265.96C2934.05 1278.36 2949.08 1306.12 2964.41 1327.64L2992.25 1366.77L2968.06 1397.28C2817.87 1586.75 2550.41 1757.59 2306.13 1820.12L2245.91 1835.52L2214.07 1802.96C2178.56 1766.63 2150.68 1755.81 2132.14 1771.19C2113.92 1786.29 2116.97 1804.67 2142.03 1830.8C2154.29 1843.58 2162.54 1855.78 2160.4 1857.92C2148.99 1869.32 1992.15 1889.51 1886.87 1893.11C1781.49 1896.74 1744.74 1894.05 1595.75 1871.89C1324.83 1831.59 1146.25 1806.05 1094.61 1800.22C1062.3 1796.58 1046.78 1791.14 1046.78 1783.45C1046.78 1777.2 1050.53 1769.77 1055.1 1766.94C1059.68 1764.12 1063.42 1751.16 1063.42 1738.15C1063.42 1719.5 1066.58 1715.31 1078.3 1718.37C1121.53 1729.66 1143.69 1622.12 1107.38 1577.25C1096.92 1564.34 1088.37 1547.28 1088.37 1539.36C1088.37 1531.45 1083.25 1517.97 1076.98 1509.41C1067.19 1496.03 1067.74 1489.1 1080.95 1460.04C1089.41 1441.45 1096.41 1418.09 1096.51 1408.12C1096.69 1389.97 1077.02 1363.91 1063.15 1363.91C1051.82 1363.91 1021.83 1398.79 1021.83 1411.97C1021.83 1418.4 1014.18 1434.4 1004.83 1447.52C990.921 1467.03 983.544 1470.52 964.255 1466.67C951.296 1464.08 932.739 1466.2 923.032 1471.4C900.184 1483.61 899.726 1518.19 922.25 1530.23C943.078 1541.37 936.133 1555.04 909.641 1555.04C884.463 1555.04 861.856 1577.41 867.886 1596.36C870.44 1604.42 868.768 1620.92 864.151 1633.03C857.298 1651.04 858.778 1658.06 872.261 1671.53C890.843 1690.09 915.538 1692.28 954.191 1678.82C984.558 1668.25 1009.29 1673.11 1037.72 1695.24L1057.76 1710.85H1035.66C1007.23 1710.85 991.554 1724.25 978.811 1759.45C966.284 1794.07 962.899 1794.27 775.98 1771.73C703.042 1762.93 615.299 1753.21 580.988 1750.13C546.678 1747.05 457.088 1733.54 381.904 1720.1C232.044 1693.32 181.323 1672.95 140.108 1622.99C95.0348 1568.36 85.4536 1467.72 122.833 1441.56C136 1432.35 140.15 1420.51 140.15 1392.19C140.15 1332.73 210.892 1209.26 239.73 1218.41C262.612 1225.66 281.551 1200.99 281.551 1163.93C281.551 1135.4 288.812 1123.1 339.717 1065.39C404.952 991.418 494.235 908.534 567.688 853.738C615.748 817.887 671.935 796.356 787.884 769.349C862.363 752.006 1140.4 715.973 1263.04 707.771C1396.09 698.871 1730.34 704.206 1795.38 716.264ZM3402.36 717.386C3396.87 722.871 3392.38 736.931 3392.38 748.623C3392.38 760.897 3385.34 774.285 3375.74 780.276C3352.58 794.727 3354.78 828.649 3380.93 859.954C3438.27 928.611 3506.54 920.234 3521.08 842.76C3527.53 808.439 3513.5 768.185 3492.8 761.62C3484.97 759.136 3470.28 745.923 3460.17 732.261C3440.88 706.192 3419.16 700.6 3402.36 717.386ZM3139.73 789.367C3094.18 839.652 3116.49 923.475 3175.42 923.475C3208.03 923.475 3227.76 897.556 3232.48 848.536C3235.6 816.043 3233.18 803.004 3221.66 790.282C3202.57 769.224 3158.42 768.734 3139.73 789.367ZM339.967 960.679C268.036 1032.92 256.998 1036.54 256.723 987.986C256.624 970.286 264.242 960.413 291.017 943.527C327.04 920.808 388.052 891.831 401.976 890.825C406.451 890.501 378.545 921.938 339.967 960.679ZM956.054 922.727C898.196 937.561 878.641 955.402 893.787 979.568C898.803 987.562 912.818 995.29 924.937 996.736C951.296 999.886 952.594 1007.22 930.335 1027.35C908.119 1047.44 909.366 1060.13 935.617 1080.76C963.049 1102.32 976.565 1102.46 994.648 1081.37C1011.5 1061.7 1040.56 1059.71 1055.1 1077.21C1060.8 1084.07 1075.97 1089.68 1088.83 1089.68C1116.02 1089.68 1127.63 1066.52 1113.6 1040.32C1106.98 1027.97 1107.39 1019.17 1115.14 1006.77C1122.92 994.318 1123.27 986.166 1116.53 975.371C1110.12 965.125 1110.01 956.674 1116.12 946.984C1141.16 907.312 1062.63 895.412 956.054 922.727ZM3307.24 958.851C3290.14 968.358 3274.12 982.56 3271.63 990.404C3266.63 1006.13 3282.84 1048.13 3293.9 1048.13C3313.82 1048.13 3296.31 1102.55 3266.98 1131.86C3246.15 1152.67 3246.73 1168.86 3268.85 1184.34C3284.33 1195.17 3289.74 1195.3 3309.21 1185.24C3321.57 1178.85 3338.03 1163.94 3345.79 1152.12L3359.9 1130.6L3394.26 1160C3443.75 1202.32 3500.51 1200.13 3500.51 1155.91C3500.51 1136.7 3495.48 1130.86 3472.4 1123.25C3429.49 1109.1 3413.4 1086.16 3411.84 1036.88C3411.09 1013.36 3410.15 991.476 3409.74 988.252C3408.11 975.247 3365.73 940.145 3352.49 940.827C3344.69 941.234 3324.33 949.344 3307.24 958.851ZM3537.94 951.189C3501.77 959.707 3496.35 963.688 3496.35 981.704C3496.35 1001.1 3498.89 1002.33 3536.25 1001.04C3581.65 999.47 3619.27 979.111 3615.3 958.269C3611.94 940.644 3590.88 938.724 3537.94 951.189ZM1805.74 971.258C1796.7 979.252 1782.88 1008.24 1775.04 1035.66C1767.2 1063.08 1757.02 1095.45 1752.44 1107.58C1731.17 1163.88 1768.39 1199.81 1823.95 1176.62C1843 1168.67 1864.96 1165.85 1882.37 1169.1C1904.15 1173.18 1914.09 1170.52 1927.68 1156.94C1937.26 1147.36 1945.06 1132.99 1945.02 1124.99C1944.9 1103.35 1897.68 1025.11 1878.55 1014.89C1869.4 1009.99 1861.92 1000.78 1861.92 994.41C1861.92 981.837 1839.97 956.715 1828.97 956.715C1825.24 956.715 1814.77 963.264 1805.74 971.258ZM3042.68 969.596C3025.19 990.662 3047.34 1003.99 3138.05 1026.98C3199.41 1042.53 3223.3 1045.52 3231.56 1038.67C3260.15 1014.97 3232.3 994.8 3142.41 974.125C3051.97 953.317 3056.06 953.508 3042.68 969.596ZM3581.6 1032.85C3545.46 1045.44 3533.78 1053.46 3533.78 1065.7C3533.78 1074.6 3539.42 1084.05 3546.32 1086.69C3567.53 1094.83 3615.71 1081.64 3639.53 1061.17C3659.01 1044.43 3660.61 1039.85 3651.02 1028.31C3637.72 1012.3 3641.28 1012.07 3581.6 1032.85ZM175.967 1090.61C180.741 1147.47 179.884 1151.25 153.383 1190.57L125.844 1231.43L120.521 1192.63C109.533 1112.56 113.584 1079.8 137.547 1054.82C149.841 1041.99 162.4 1031.51 165.452 1031.51C168.505 1031.51 173.239 1058.1 175.967 1090.61ZM2597.74 1047.75C2536.18 1057.21 2520.46 1063.72 2514.6 1082.19C2504.78 1113.09 2525.57 1124.96 2583.13 1121.3C2635.08 1118 2635.46 1118.13 2635.46 1140.08C2635.46 1161.21 2632.28 1162.82 2563.97 1176.38C2524.64 1184.18 2490.01 1188.1 2487.03 1185.08C2484.03 1182.07 2481.29 1171.53 2480.93 1161.65C2480.57 1151.78 2479.63 1133.54 2478.85 1121.13C2477.11 1093.52 2451.2 1077.02 2428.58 1089.11C2415.74 1095.97 2412.24 1110.29 2408.71 1170.42C2404.77 1237.59 2406.05 1245.94 2424.75 1275.09C2451.37 1316.58 2481.33 1312.96 2499.06 1266.11C2499.53 1264.88 2533.22 1259.86 2573.92 1254.95C2614.64 1250.03 2653.56 1241.53 2660.42 1236.07C2667.28 1230.61 2686.93 1219.8 2704.09 1212.06C2736.87 1197.26 2747.06 1168.46 2722.8 1159.16C2713.89 1155.75 2710.32 1141.85 2710.32 1110.58C2710.32 1084.02 2705.92 1063.13 2699.14 1057.5C2682.85 1044 2645.51 1040.41 2597.74 1047.75ZM3171.96 1062.11C3101.13 1067.94 3084.62 1073.17 3084.62 1089.76C3084.62 1114.2 3111.62 1123.8 3163.27 1117.73C3219.83 1111.09 3242.37 1096.96 3229.59 1076.11C3219.22 1059.2 3216.21 1058.47 3171.96 1062.11ZM3009.69 1185.09C3026.16 1219.1 3033.12 1285.93 3019.29 1277.4C3015.38 1274.98 3003.65 1249.52 2993.23 1220.82C2982.8 1192.1 2969.15 1161.24 2962.91 1152.23C2956.65 1143.22 2951.54 1130.41 2951.54 1123.77C2951.54 1104.43 2990.53 1145.55 3009.69 1185.09ZM3140.39 1149.17C3095.08 1178.77 3091.19 1200.45 3130.49 1204.31C3161.35 1207.35 3221.06 1157.95 3212.73 1136.26C3205.13 1116.46 3184.94 1120.07 3140.39 1149.17ZM1248.25 1186.86C1239.12 1199.68 1227.98 1223.54 1223.47 1239.89C1218.97 1256.23 1205.44 1279.43 1193.42 1291.44C1167.03 1317.8 1166.41 1325.23 1188.82 1346.1C1203.51 1359.78 1205.24 1367.94 1200.3 1400.76C1195.67 1431.63 1197.47 1442.61 1209.28 1455.64C1226.2 1474.33 1248.67 1476.77 1261.51 1461.32C1266.36 1455.47 1272.96 1421.72 1276.18 1386.29C1282.16 1320.33 1292.23 1300.51 1306.67 1326.28C1331.96 1371.43 1371.76 1385.55 1388.05 1355.16C1395.46 1341.32 1393.16 1331.21 1375.86 1301.74C1364.14 1281.74 1354.29 1260.44 1353.99 1254.4C1352.97 1234.33 1299.46 1168.66 1282.01 1166.09C1270.84 1164.43 1259.03 1171.7 1248.25 1186.86ZM606.416 1259.46C600.984 1266 594.372 1292.37 591.718 1318.05C587.701 1356.91 584.648 1363.76 573.544 1358.85C566.199 1355.6 533.221 1349.21 500.249 1344.64C435.962 1335.75 414.634 1342.62 414.634 1372.22C414.634 1394.58 433 1405.12 489.178 1415.01L540.607 1424.06L520.144 1445.93C492.022 1475.96 485.867 1500.37 502.278 1516.77C521.65 1536.12 527.539 1534.09 571.814 1492.71C593.823 1472.14 618.035 1455.32 625.629 1455.32C633.224 1455.32 645.941 1452.18 653.885 1448.35C661.828 1444.52 679.553 1435.97 693.277 1429.34C729.21 1411.98 728.095 1379.27 691.198 1368.42C664.872 1360.67 664.165 1359.26 664.165 1313.99C664.165 1288.43 659.674 1263.02 654.184 1257.54C640.701 1244.07 618.46 1244.96 606.416 1259.46ZM1924.15 1286.29C1917.37 1293.07 1911.82 1305.83 1911.82 1314.64C1911.82 1331.67 1899.6 1336.21 1891.03 1322.36C1882.18 1308.05 1854.21 1313.27 1843.27 1331.26C1837.51 1340.74 1820.65 1353.63 1805.77 1359.93C1783.49 1369.36 1778.74 1375.93 1778.74 1397.32C1778.74 1411.6 1768.88 1440.08 1756.83 1460.62C1737.46 1493.64 1736.18 1500.3 1745.76 1518.19C1757.48 1540.05 1780.9 1544.69 1795.51 1528.03C1800.53 1522.32 1817.24 1499.61 1832.66 1477.57C1858.82 1440.17 1861.29 1438.62 1869.73 1454.37C1877.14 1468.21 1875.79 1472.83 1862.22 1480.09C1853.11 1484.96 1841.46 1496.78 1836.32 1506.38C1822.83 1531.56 1849.03 1555.4 1892.05 1557.11C1916.82 1558.1 1932.82 1552.56 1955.88 1534.99L1986.64 1511.54L1981.98 1414.87C1979.41 1361.7 1975.71 1310.23 1973.77 1300.49C1969.32 1278.26 1940.46 1269.99 1924.15 1286.29ZM3138.87 1425.92C3312.76 1462.94 3563.5 1573.65 3675.18 1662.73L3695.97 1679.32L3544.98 1679.5C3429.1 1679.65 3375.91 1676.02 3316.24 1663.94C3203.19 1641.05 3052.46 1577.75 2991.7 1527.65L2969.47 1509.33L3011.55 1456.95C3034.7 1428.13 3057.88 1406.18 3063.07 1408.17C3068.26 1410.16 3102.37 1418.15 3138.87 1425.92ZM1612.75 1438.33C1600.32 1450.75 1597.38 1461.38 1601.17 1480.3C1604.59 1497.41 1602.04 1510.27 1593.29 1519.94C1586.17 1527.82 1569.14 1557.94 1555.46 1586.87C1541.77 1615.81 1525.13 1645.72 1518.47 1653.35C1511.82 1660.98 1504.5 1684.83 1502.22 1706.35C1495.17 1772.73 1526.24 1794.06 1595.07 1770.09C1617 1762.45 1627.75 1763.44 1654.67 1775.57C1687.25 1790.24 1687.69 1790.2 1708.17 1770.97C1719.54 1760.3 1728.84 1743.72 1728.84 1734.1C1728.84 1724.49 1736.32 1710.22 1745.47 1702.39C1772.16 1679.55 1765.21 1653.57 1728.67 1639.61C1710.58 1632.69 1706.2 1622.36 1693.1 1555.51C1674.54 1460.84 1667.48 1442.05 1646.25 1430.7C1632.72 1423.46 1626.14 1424.96 1612.75 1438.33ZM2252.85 1472.09C2211.23 1501.52 2202.7 1504.31 2158.39 1503.02C2119.04 1501.88 2107.45 1504.65 2098.09 1517.44C2082.3 1539.01 2083.27 1544.03 2107.25 1564.87C2126.35 1581.46 2126.96 1584.06 2114.84 1597.43C2098.93 1614.99 2101.99 1637.21 2122.05 1649.71C2133.62 1656.93 2144.16 1654.91 2170.97 1640.31L2205.14 1621.69L2238.95 1646.54C2257.55 1660.2 2279.43 1671.38 2287.57 1671.38C2311.36 1671.38 2325.6 1638.35 2329.88 1573.28C2333.07 1524.75 2337.52 1509.18 2352.06 1495.64C2362.54 1485.9 2369.17 1471.11 2367.69 1460.78C2365.61 1446.15 2359.02 1442.57 2331.87 1441.3C2305.16 1440.06 2289.58 1446.13 2252.85 1472.09ZM1637.34 1634.47C1637.34 1641.06 1631.73 1646.45 1624.86 1646.45C1610.87 1646.45 1610.31 1644.92 1617.42 1626.4C1623.26 1611.19 1637.34 1616.89 1637.34 1634.47ZM1113.32 1875.8L1142.44 1880.61L1143.96 1944.27C1144.79 1979.29 1146.66 2065.89 1148.12 2136.74L1150.75 2265.54L1119.41 2361.11C1086.2 2462.32 1045.17 2543.93 1027.49 2543.93C997.551 2543.93 963.606 2355.38 963.606 2189.1C963.606 2058.24 969.728 2011.01 998.15 1922.75L1014.87 1870.82L1049.54 1870.91C1068.61 1870.96 1097.31 1873.16 1113.32 1875.8ZM2568.92 1904.06C2568.92 1908.63 2572.67 1912.37 2577.24 1912.37C2581.82 1912.37 2585.56 1908.63 2585.56 1904.06C2585.56 1899.49 2581.82 1895.75 2577.24 1895.75C2572.67 1895.75 2568.92 1899.49 2568.92 1904.06Z" fill="white"/>
</svg>
