<svg width="28" height="28" viewBox="0 0 28 28" fill="none" xmlns="http://www.w3.org/2000/svg">
<path d="M26 10L26 2M26 2H18M26 2L15.3333 12.6667M11.3333 4.66667H8.4C6.15979 4.66667 5.03968 4.66667 4.18404 5.10264C3.43139 5.48613 2.81947 6.09806 2.43597 6.8507C2 7.70635 2 8.82646 2 11.0667V19.6C2 21.8402 2 22.9603 2.43597 23.816C2.81947 24.5686 3.43139 25.1805 4.18404 25.564C5.03968 26 6.15979 26 8.4 26H16.9333C19.1735 26 20.2936 26 21.1493 25.564C21.9019 25.1805 22.5139 24.5686 22.8974 23.816C23.3333 22.9603 23.3333 21.8402 23.3333 19.6V16.6667" stroke="black" stroke-width="4" stroke-linecap="round" stroke-linejoin="round"/>
</svg>
